<?xml version="1.0" encoding="UTF-8"?>
<svg id="Layer_2" data-name="Layer 2" xmlns="http://www.w3.org/2000/svg" xmlns:xlink="http://www.w3.org/1999/xlink" viewBox="0 0 58 58">
  <defs>
    <style>
      .cls-1 {
        fill: url(#linear-gradient-2);
      }

      .cls-2 {
        fill: #fff;
      }

      .cls-3 {
        fill: url(#linear-gradient-4);
      }

      .cls-4 {
        fill: url(#linear-gradient-3);
        opacity: .8;
      }

      .cls-5 {
        filter: url(#drop-shadow-1);
      }

      .cls-6 {
        fill: url(#linear-gradient-5);
      }

      .cls-7 {
        fill: url(#linear-gradient);
      }

      .cls-8 {
        fill: #707070;
      }
    </style>
    <filter id="drop-shadow-1" x="9.72" y="4.2" width="40" height="49" filterUnits="userSpaceOnUse">
      <feOffset dx=".5" dy=".5"/>
      <feGaussianBlur result="blur" stdDeviation="1"/>
      <feFlood flood-color="#000" flood-opacity=".3"/>
      <feComposite in2="blur" operator="in"/>
      <feComposite in="SourceGraphic"/>
    </filter>
    <linearGradient id="linear-gradient" x1="9.39" y1="28.41" x2="49.09" y2="28.41" gradientUnits="userSpaceOnUse">
      <stop offset="0" stop-color="#094595" stop-opacity=".7"/>
      <stop offset=".02" stop-color="#084698" stop-opacity=".72"/>
      <stop offset=".17" stop-color="#0452b3" stop-opacity=".84"/>
      <stop offset=".3" stop-color="#025bc6" stop-opacity=".93"/>
      <stop offset=".42" stop-color="#0061d2" stop-opacity=".98"/>
      <stop offset=".49" stop-color="#0063d7"/>
      <stop offset=".6" stop-color="#005fd0"/>
      <stop offset=".76" stop-color="#0357bd"/>
      <stop offset=".95" stop-color="#07499f"/>
      <stop offset="1" stop-color="#094595"/>
    </linearGradient>
    <linearGradient id="linear-gradient-2" x1="74.53" y1="-187.55" x2="74.53" y2="-150.02" gradientTransform="translate(-45.42 198.8)" gradientUnits="userSpaceOnUse">
      <stop offset="0" stop-color="#b4d2f9"/>
      <stop offset=".09" stop-color="#bcd6f7"/>
      <stop offset=".46" stop-color="#d9e4f4"/>
      <stop offset=".77" stop-color="#eaedf1"/>
      <stop offset="1" stop-color="#f1f1f1"/>
    </linearGradient>
    <linearGradient id="linear-gradient-3" x1="59.34" y1="-170.29" x2="87.22" y2="-170.29" gradientTransform="translate(-45.42 198.8)" gradientUnits="userSpaceOnUse">
      <stop offset="0" stop-color="#9fb9db"/>
      <stop offset=".05" stop-color="#a7bedd"/>
      <stop offset=".39" stop-color="#dce2eb"/>
      <stop offset=".55" stop-color="#f1f1f1"/>
      <stop offset=".63" stop-color="#eaecef"/>
      <stop offset=".75" stop-color="#d8dfea"/>
      <stop offset=".9" stop-color="#bacbe2"/>
      <stop offset="1" stop-color="#9fb9db"/>
    </linearGradient>
    <linearGradient id="linear-gradient-4" x1="74.53" y1="-167.85" x2="74.53" y2="-194.09" gradientTransform="translate(-39.56 200.48)" gradientUnits="userSpaceOnUse">
      <stop offset="0" stop-color="#3f8bf0"/>
      <stop offset=".11" stop-color="#3685ec"/>
      <stop offset=".7" stop-color="#0f6cdd"/>
      <stop offset="1" stop-color="#0063d7"/>
    </linearGradient>
    <linearGradient id="linear-gradient-5" x1="63.57" y1="-181.35" x2="85.56" y2="-181.35" gradientTransform="translate(-39.56 200.48)" xlink:href="#linear-gradient"/>
  </defs>
  <g id="Layer_3" data-name="Layer 3">
    <g>
      <circle class="cls-8" cx="29" cy="29" r="29"/>
      <g class="cls-5">
        <path class="cls-2" d="M22.22,49.17c-1.8,0-3.56-.51-5.1-1.46-2.18-1.36-3.7-3.49-4.28-6-.58-2.51-.15-5.09,1.21-7.27l13.9-22.25c1.77-2.84,4.83-4.53,8.18-4.53,1.8,0,3.56.51,5.09,1.46,2.18,1.36,3.7,3.49,4.28,6s.15,5.09-1.22,7.27l-13.9,22.25c-1.77,2.84-4.83,4.53-8.18,4.53Z"/>
        <path d="M22.22,48.42c-1.66,0-3.28-.47-4.7-1.35-4.15-2.59-5.42-8.08-2.83-12.24l13.9-22.25c1.63-2.62,4.45-4.18,7.54-4.18,1.66,0,3.28.47,4.7,1.35,2.01,1.26,3.41,3.22,3.95,5.53s.14,4.69-1.12,6.71l-13.9,22.25c-1.63,2.62-4.45,4.18-7.54,4.18h0Z"/>
        <path class="cls-7" d="M40.7,9.97c-4.04-2.53-9.37-1.3-11.89,2.75l-6.88,11.02h0l-7.01,11.23c-2.53,4.04-1.3,9.37,2.75,11.89h0c4.04,2.53,9.37,1.3,11.89-2.75l13.77-22.04s0,0,0,0l.13-.21c2.53-4.04,1.3-9.37-2.75-11.89Z"/>
        <g>
          <rect class="cls-1" x="20.48" y="6.89" width="17.26" height="43.25" rx="8.63" ry="8.63" transform="translate(19.53 -11.09) rotate(31.99)"/>
          <rect class="cls-4" x="20.48" y="6.89" width="17.26" height="43.25" rx="8.63" ry="8.63" transform="translate(19.53 -11.09) rotate(31.99)"/>
          <path class="cls-3" d="M34.97,8.32h0c4.76,0,8.63,3.87,8.63,8.63v12.99h-17.26v-12.99c0-4.76,3.87-8.63,8.63-8.63Z" transform="translate(15.45 -15.62) rotate(31.99)"/>
          <path class="cls-6" d="M34.97,8.32h0c4.76,0,8.63,3.87,8.63,8.63v12.99h-17.26v-12.99c0-4.76,3.87-8.63,8.63-8.63Z" transform="translate(15.45 -15.62) rotate(31.99)"/>
        </g>
      </g>
    </g>
  </g>
</svg>